<svg width="730" height="168" viewBox="0 0 730 168" fill="none" xmlns="http://www.w3.org/2000/svg">
<rect x="64.2346" y="19.2803" width="27.3353" height="83.5717" rx="13.6676" transform="rotate(28 64.2346 19.2803)" fill="#F0007D"/>
<rect x="141.864" y="61.9233" width="27.3353" height="83.5717" rx="13.6676" transform="rotate(27.9978 141.864 61.9233)" fill="url(#paint0_linear_15_46)"/>
<rect x="141.864" y="61.9233" width="27.3353" height="27.8195" rx="13.6676" transform="rotate(27.9978 141.864 61.9233)" fill="#E20289"/>
<rect x="115.341" y="16" width="27.3353" height="138.864" rx="13.6676" transform="rotate(28 115.341 16)" fill="url(#paint1_linear_15_46)"/>
<rect x="115.341" y="16" width="27.3353" height="78.9504" rx="13.6676" transform="rotate(28 115.341 16)" fill="#E60089"/>
<path d="M217.424 121C216.677 121 216.043 120.739 215.52 120.216C214.997 119.693 214.736 119.059 214.736 118.312V45.4C214.736 44.5787 214.96 43.9067 215.408 43.384C215.931 42.8613 216.603 42.6 217.424 42.6H266.032C266.853 42.6 267.525 42.8613 268.048 43.384C268.571 43.9067 268.832 44.5787 268.832 45.4V53.24C268.832 54.0613 268.571 54.7333 268.048 55.256C267.525 55.704 266.853 55.928 266.032 55.928H230.08V77.208H263.792C264.613 77.208 265.285 77.4693 265.808 77.992C266.331 78.5147 266.592 79.1867 266.592 80.008V87.848C266.592 88.6693 266.331 89.3413 265.808 89.864C265.285 90.312 264.613 90.536 263.792 90.536H230.08V118.312C230.08 119.133 229.819 119.805 229.296 120.328C228.773 120.776 228.101 121 227.28 121H217.424ZM283.458 121C282.711 121 282.076 120.739 281.554 120.216C281.031 119.693 280.77 119.059 280.77 118.312V44.168C280.77 43.3467 281.031 42.712 281.554 42.264C282.076 41.7413 282.711 41.48 283.458 41.48H292.754C293.575 41.48 294.21 41.7413 294.658 42.264C295.18 42.712 295.442 43.3467 295.442 44.168V118.312C295.442 119.059 295.18 119.693 294.658 120.216C294.21 120.739 293.575 121 292.754 121H283.458ZM335.386 122.12C327.098 122.12 320.49 119.731 315.562 114.952C310.709 110.099 308.133 103.304 307.834 94.568L307.722 91.768L307.834 88.968C308.208 80.456 310.821 73.7733 315.674 68.92C320.602 64.0667 327.173 61.64 335.386 61.64C344.197 61.64 350.992 64.328 355.77 69.704C360.624 75.08 363.05 82.248 363.05 91.208V93.56C363.05 94.3067 362.789 94.9413 362.266 95.464C361.744 95.9867 361.072 96.248 360.25 96.248H323.066V97.144C323.216 101.251 324.336 104.723 326.426 107.56C328.592 110.323 331.541 111.704 335.274 111.704C339.68 111.704 343.226 109.987 345.914 106.552C346.586 105.731 347.109 105.208 347.482 104.984C347.93 104.76 348.565 104.648 349.386 104.648H359.018C359.69 104.648 360.25 104.872 360.698 105.32C361.221 105.693 361.482 106.179 361.482 106.776C361.482 108.568 360.4 110.696 358.234 113.16C356.144 115.549 353.12 117.64 349.162 119.432C345.205 121.224 340.613 122.12 335.386 122.12ZM347.818 86.84V86.504C347.818 82.0987 346.698 78.552 344.458 75.864C342.293 73.176 339.269 71.832 335.386 71.832C331.504 71.832 328.48 73.176 326.314 75.864C324.149 78.552 323.066 82.0987 323.066 86.504V86.84H347.818ZM370.944 121C370.272 121 369.674 120.776 369.152 120.328C368.704 119.805 368.48 119.208 368.48 118.536C368.48 117.864 368.741 117.229 369.264 116.632L388.304 91.096L370.608 67.128C370.16 66.5307 369.936 65.896 369.936 65.224C369.936 64.552 370.16 63.992 370.608 63.544C371.13 63.0213 371.728 62.76 372.4 62.76H382.144C382.89 62.76 383.45 62.9467 383.824 63.32C384.272 63.6187 384.72 64.0667 385.168 64.664L397.824 81.464L410.48 64.664C410.554 64.5893 410.853 64.2533 411.376 63.656C411.824 63.0587 412.533 62.76 413.504 62.76H422.8C423.472 62.76 424.032 63.0213 424.48 63.544C425.002 63.992 425.264 64.5147 425.264 65.112C425.264 65.8587 425.04 66.5307 424.592 67.128L406.672 91.32L425.824 116.632C426.346 117.229 426.608 117.864 426.608 118.536C426.608 119.208 426.346 119.805 425.824 120.328C425.376 120.776 424.816 121 424.144 121H413.952C412.757 121 411.749 120.403 410.928 119.208L397.488 101.4L383.824 119.208C383.002 120.403 381.994 121 380.8 121H370.944ZM467.773 122.12C457.469 122.12 449.48 119.469 443.805 114.168C438.205 108.867 435.218 101.4 434.845 91.768C434.77 89.752 434.733 86.4667 434.733 81.912C434.733 77.2827 434.77 73.9227 434.845 71.832C435.218 62.2747 438.242 54.8453 443.917 49.544C449.666 44.168 457.618 41.48 467.773 41.48C474.418 41.48 480.205 42.6373 485.133 44.952C490.061 47.192 493.869 50.2907 496.557 54.248C499.245 58.1307 500.664 62.536 500.813 67.464V67.688C500.813 68.2853 500.552 68.808 500.029 69.256C499.581 69.6293 499.058 69.816 498.461 69.816H487.821C486.925 69.816 486.253 69.6293 485.805 69.256C485.357 68.8827 484.984 68.1733 484.685 67.128C483.49 62.424 481.512 59.1387 478.749 57.272C475.986 55.3307 472.29 54.36 467.661 54.36C456.909 54.36 451.309 60.3707 450.861 72.392C450.786 74.408 450.749 77.5067 450.749 81.688C450.749 85.8693 450.786 89.0427 450.861 91.208C451.309 103.229 456.909 109.24 467.661 109.24C472.29 109.24 475.986 108.269 478.749 106.328C481.586 104.387 483.565 101.101 484.685 96.472C484.909 95.4267 485.245 94.7173 485.693 94.344C486.216 93.9707 486.925 93.784 487.821 93.784H498.461C499.133 93.784 499.693 94.008 500.141 94.456C500.664 94.904 500.888 95.464 500.813 96.136C500.664 101.064 499.245 105.507 496.557 109.464C493.869 113.347 490.061 116.445 485.133 118.76C480.205 121 474.418 122.12 467.773 122.12ZM538.511 122.12C529.775 122.12 523.018 119.88 518.239 115.4C513.461 110.845 510.885 104.648 510.511 96.808L510.399 91.88L510.511 86.952C510.885 79.1867 513.498 73.0267 518.351 68.472C523.205 63.9173 529.925 61.64 538.511 61.64C547.098 61.64 553.818 63.9173 558.671 68.472C563.525 73.0267 566.138 79.1867 566.511 86.952C566.586 87.848 566.623 89.4907 566.623 91.88C566.623 94.2693 566.586 95.912 566.511 96.808C566.138 104.648 563.562 110.845 558.783 115.4C554.005 119.88 547.247 122.12 538.511 122.12ZM538.511 111.032C542.469 111.032 545.53 109.8 547.695 107.336C549.861 104.797 551.055 101.101 551.279 96.248C551.354 95.5013 551.391 94.0453 551.391 91.88C551.391 89.7147 551.354 88.2587 551.279 87.512C551.055 82.6587 549.861 79 547.695 76.536C545.53 73.9973 542.469 72.728 538.511 72.728C534.554 72.728 531.493 73.9973 529.327 76.536C527.162 79 525.967 82.6587 525.743 87.512L525.631 91.88L525.743 96.248C525.967 101.101 527.162 104.797 529.327 107.336C531.493 109.8 534.554 111.032 538.511 111.032ZM600.649 122.12C593.107 122.12 587.321 119.693 583.289 114.84C579.257 109.987 577.091 103.528 576.793 95.464L576.681 91.768L576.793 88.184C577.017 80.344 579.145 73.96 583.177 69.032C587.283 64.104 593.107 61.64 600.649 61.64C607.891 61.64 613.641 64.104 617.897 69.032V44.168C617.897 43.3467 618.158 42.712 618.681 42.264C619.203 41.7413 619.838 41.48 620.585 41.48H630.105C630.926 41.48 631.561 41.7413 632.009 42.264C632.531 42.712 632.793 43.3467 632.793 44.168V118.312C632.793 119.059 632.531 119.693 632.009 120.216C631.561 120.739 630.926 121 630.105 121H621.257C620.51 121 619.875 120.739 619.353 120.216C618.83 119.693 618.569 119.059 618.569 118.312V114.168C614.313 119.469 608.339 122.12 600.649 122.12ZM604.793 110.136C609.123 110.136 612.334 108.755 614.425 105.992C616.515 103.229 617.673 99.832 617.897 95.8C617.971 94.904 618.009 93.448 618.009 91.432C618.009 89.4907 617.971 88.072 617.897 87.176C617.747 83.4427 616.553 80.2693 614.313 77.656C612.147 74.968 608.974 73.624 604.793 73.624C596.729 73.624 592.435 78.5893 591.913 88.52L591.801 91.88L591.913 95.24C592.435 105.171 596.729 110.136 604.793 110.136ZM672.808 122.12C664.52 122.12 657.912 119.731 652.984 114.952C648.131 110.099 645.555 103.304 645.256 94.568L645.144 91.768L645.256 88.968C645.629 80.456 648.243 73.7733 653.096 68.92C658.024 64.0667 664.595 61.64 672.808 61.64C681.619 61.64 688.413 64.328 693.192 69.704C698.045 75.08 700.472 82.248 700.472 91.208V93.56C700.472 94.3067 700.211 94.9413 699.688 95.464C699.165 95.9867 698.493 96.248 697.672 96.248H660.488V97.144C660.637 101.251 661.757 104.723 663.848 107.56C666.013 110.323 668.963 111.704 672.696 111.704C677.101 111.704 680.648 109.987 683.336 106.552C684.008 105.731 684.531 105.208 684.904 104.984C685.352 104.76 685.987 104.648 686.808 104.648H696.44C697.112 104.648 697.672 104.872 698.12 105.32C698.643 105.693 698.904 106.179 698.904 106.776C698.904 108.568 697.821 110.696 695.656 113.16C693.565 115.549 690.541 117.64 686.584 119.432C682.627 121.224 678.035 122.12 672.808 122.12ZM685.24 86.84V86.504C685.24 82.0987 684.12 78.552 681.88 75.864C679.715 73.176 676.691 71.832 672.808 71.832C668.925 71.832 665.901 73.176 663.736 75.864C661.571 78.552 660.488 82.0987 660.488 86.504V86.84H685.24Z" fill="#110D18"/>
<defs>
<linearGradient id="paint0_linear_15_46" x1="141.864" y1="61.9233" x2="191.251" y2="78.0772" gradientUnits="userSpaceOnUse">
<stop stop-color="#EE4FC3"/>
<stop offset="1" stop-color="#3813C2"/>
</linearGradient>
<linearGradient id="paint1_linear_15_46" x1="115.341" y1="16" x2="167.972" y2="26.3604" gradientUnits="userSpaceOnUse">
<stop stop-color="#BB419A"/>
<stop offset="0.708333" stop-color="#5E20B6"/>
<stop offset="1" stop-color="#3813C2"/>
</linearGradient>
</defs>
</svg>
